<?xml version="1.0" encoding="UTF-8"?>
<svg id="Layer_1" data-name="Layer 1" xmlns="http://www.w3.org/2000/svg" viewBox="0 0 1178 500">
  <defs>
    <style>
      .cls-1 {
        fill: #fff;
      }
    </style>
  </defs>
  <path class="cls-1" d="M227.72,342.8l13.26-7.64c1.42-.76,3.15.22,3.15,1.88v1.15c0,.83-.39,1.49-1.05,1.88l-14.09,8.13c-.66.27-1.46.22-2.1-.1l-25.31-14.52v-.02c-.63-.39-1.05-1.05-1.05-1.81v-85.29c0-.76.39-1.42,1.05-1.85l22.99-14.03c1.42-.78,3.15.17,3.15,1.85v110.38ZM152.55,305.32c-.54-.42-1.05-1.05-1.05-1.81v-55.59c0-.76.39-1.42,1.05-1.85l23.55-13.01c1.37-.83,3.17.27,3.17,1.85v78.37s13.37-7.85,13.37-7.85c1.37-.76,3.15.2,3.17,1.88v1.27c0,.78-.39,1.44-1.05,1.88l-14.42,8.32c-.66.39-2.22,1.39-3.07.83l-2.03-1.2-22.69-13.1ZM170.64,198.24v15.3c-.07,1.6-1.78,2.62-3.21,1.79l-.99-.57c-.72-.41-1.09-1.08-1.1-1.85v-16.27c.1-.7.55-1.38,1.14-1.77l25.23-14.66h.02c.66-.34,1.43-.37,2.09,0l73.87,42.65c.66.38,1.03,1.05,1.08,1.84l.66,26.92c-.03,1.62-1.72,2.64-3.18,1.8l-95.59-55.19ZM240.69,151.87c.63-.26,1.43-.38,2.09,0l48.15,27.8c.66.38,1.03,1.05,1.08,1.84l-.51,26.9c.04,1.6-1.82,2.61-3.19,1.82l-67.88-39.18.11,15.5c-.03,1.56-1.74,2.63-3.21,1.81l-1.1-.63c-.68-.39-1.05-1.06-1.1-1.85v-16.65c0-.77-.09-2.62.82-3.08l2.05-1.16,22.7-13.1ZM324.33,221.09l-13.24-7.66c-1.36-.85-1.38-2.84.05-3.67l.99-.57c.72-.41,1.48-.41,2.15-.03l14.09,8.14c.56.44.92,1.16.96,1.87l.08,29.18h-.02c-.02.76-.38,1.45-1.04,1.82l-73.87,42.65c-.66.38-1.42.37-2.13.02l-23.65-12.89c-1.38-.84-1.43-2.81.03-3.65l95.59-55.19ZM329.46,304.94c-.09.67-.38,1.43-1.04,1.81l-48.15,27.8c-.66.38-1.42.37-2.13.02l-23.04-13.89c-1.4-.77-1.35-2.88.02-3.67l67.87-39.19-13.48-7.65c-1.34-.81-1.4-2.82.04-3.69l1.1-.63c.68-.39,1.44-.38,2.15-.03l14.42,8.33c.67.38,2.31,1.23,2.26,2.25l-.02,2.35v26.21ZM388.92,287.26l11.58-12.84,1.68.21c3.79,22.53,21.05,36.63,41.68,36.63s36.21-11.79,36.21-30.1c0-16-9.26-25.26-26.32-30.52l-23.58-7.16c-21.68-6.95-35.37-18.1-35.37-38.73,0-23.79,20.21-39.16,48.42-39.16,22.74,0,42.74,11.16,49.05,28.21l-10.53,12.63-1.68-.21c-4.21-18.74-18.1-30.32-36.84-30.32-19.79,0-33.05,10.11-33.05,25.89,0,13.47,9.05,21.05,25.26,25.89l24.21,7.58c22.53,6.95,36.42,19.79,36.42,42.94,0,25.89-21.68,43.37-52.42,43.37-25.68,0-48.42-13.89-54.73-34.32ZM508.9,292.52c0-18.53,13.47-29.05,37.26-33.68l34.1-6.74v-7.79c0-17.89-10.74-27.16-25.68-27.16-15.79,0-27.58,9.9-28,28l-15.16-4c2.31-18.74,18.52-33.05,43.37-33.05s40.42,13.68,40.42,37.68v62.31l7.37,9.69v1.68h-22.53v-21.9c-7.16,14.95-20.21,24-37.05,24-20.42,0-34.1-11.37-34.1-29.05ZM546.79,310.63c17.89,0,29.26-12.63,33.26-28.42v-21.47l-29.26,5.89c-16.84,3.79-25.89,11.58-25.89,24.63,0,11.79,8.42,19.37,21.9,19.37ZM618.18,317.79l7.37-9.48v-88.42h-20.63v-7.79l20.63-1.69v-15.37c0-21.26,13.05-31.58,30.1-31.58,7.37,0,14.1,1.89,19.16,5.68l-2.53,15.16h-1.47c-3.16-7.37-8.63-11.79-14.74-11.79-8.21,0-15.58,6.32-15.58,20.63v16.63l28.42-.84.42,10.95h-28.84v88.42l9.68,9.48v1.68h-32v-1.68ZM725.57,309.37c17.26,0,29.05-9.05,35.16-26.74l8.63,2.74c-5.47,21.9-22.53,36.21-46.52,36.21-30.94,0-52-24.42-52-56.84s19.79-56.63,50.74-56.63c35.58,0,48.42,27.79,46.74,53.89h-81.26v1.47c0,28.63,17.05,45.89,38.53,45.89ZM752.1,253.16c-.84-19.79-12-36-30.53-36s-30.73,15.79-33.68,36h64.21ZM783.03,317.79l7.37-9.48v-83.36l-7.37-10.32v-1.47l22.32-4v24.42c5.68-15.37,16-25.47,30.1-25.47,2.74,0,5.26.21,7.37.84l-1.26,15.58c-22.74-6.53-33.05,13.26-36.21,27.79v56l9.68,9.48v1.68h-32v-1.68ZM836.56,318l11.37-10.32,54.52-140h11.79l55.16,139.79,11.37,10.53v1.47h-36.42l-.21-1.47,7.58-10.11-13.26-34.1h-64.84l-12.84,34.32,7.16,9.9-.21,1.47h-31.16v-1.47ZM934.46,263.26l-28.84-74.1-28,74.1h56.84ZM1026.5,317.79v1.68h-35.37v-1.68l9.48-10.32v-127.79l-9.48-10.53v-1.47h35.37v1.47l-9.47,10.53v127.79l9.47,10.32Z"/>
</svg>